<svg xmlns="http://www.w3.org/2000/svg" version="1" viewBox="0 0 1920 1080"><g fill="#333" stroke-width="6.9" aria-label="ARCHIPEL DB" font-family="Raleway Light" font-size="133.3" letter-spacing="36" style="line-height:1.25;-inkscape-font-specification:'PT Sans Narrow'" text-anchor="middle"><path d="M388 841h6l40 95h-7l-14-31h-45l-13 31h-7zm23 58l-20-49-21 49zM484 936v-95h39q6 0 12 3 5 2 8 7 4 4 6 9t2 11l-2 10q-1 5-4 9l-7 6-9 3 23 37h-7l-23-36h-31v36zm7-42h33q5 0 8-2l7-5 4-8 1-8-1-9-5-7q-3-4-7-5-3-2-8-2h-32zM600 888q0-8 3-17 3-8 9-15t14-11q8-4 19-4 13 0 22 6 8 5 13 15l-6 3q-2-5-6-9l-7-5-8-3-9-1q-9 0-16 4-7 3-11 9-5 6-8 14l-2 14q0 9 3 16 3 8 8 14t12 9q7 4 15 4l9-1 8-4 8-6q4-3 6-8l6 3-7 9-9 7-11 5-11 1q-9 0-18-4-8-5-13-11-6-7-10-16-3-9-3-18zM808 841v95h-7v-45h-60v45h-6v-95h6v44h60v-44zM869 936v-95h6v95zM936 936v-95h39q6 0 11 3 5 2 9 7 4 4 6 9t2 11l-2 11q-2 5-6 9-3 4-8 7-5 2-11 2h-33v36zm7-42h33l8-2q4-2 6-5 3-3 4-7l2-9q0-5-2-9l-4-8-7-5-8-1h-32zM1118 930v6h-63v-95h62v7h-55v37h48v6h-48v39zM1173 936v-95h6v89h57v6zM1353 936v-95h31q11 0 20 4 8 4 14 10 6 7 8 15 3 9 3 19t-3 19q-3 9-9 15t-14 10q-8 3-19 3zm69-47q0-9-2-17-3-7-8-13-4-5-11-8-8-3-17-3h-24v82h24q10 0 17-3t12-9l7-13 2-16zM1554 912q0 5-2 9-2 5-6 8l-8 5-10 2h-44v-95h44q5 0 9 3l7 5q3 3 4 8 2 4 2 9 0 7-4 13t-10 9q8 2 13 9 5 6 5 15zm-7-1l-2-8-3-6-6-4q-3-2-7-2h-38v39h37q4 0 7-2 4-1 6-4l4-6 2-7zm-56-63v37h34l7-1 6-4 4-6 1-8-1-7-4-6-5-4-7-1z" style="-inkscape-font-specification:'Raleway Light, ';text-align:center"/></g><path fill="#333" d="M857 386L720 624h275z"/><path fill="#333" d="M961 209l-5 7-73 127 163 281h154l-120-208zm0 19l111 193 111 193h-132L895 343z" color="#000" style="-inkscape-stroke:none"/><path fill="#333" d="M836 242l-5 9 162 282h11zM865 399l-5 10 162 281h11z" color="#000" style="-inkscape-stroke:none"/></svg>